<svg version="1.1" viewBox="0.0 0.0 349.1076115485564 285.61942257217845" fill="none" stroke="none" stroke-linecap="square" stroke-miterlimit="10" xmlns:xlink="http://www.w3.org/1999/xlink" xmlns="http://www.w3.org/2000/svg"><clipPath id="p.0"><path d="m0 0l349.1076 0l0 285.61942l-349.1076 0l0 -285.61942z" clip-rule="nonzero"/></clipPath><g clip-path="url(#p.0)"><path fill="#000000" fill-opacity="0.0" d="m0 0l349.1076 0l0 285.61942l-349.1076 0z" fill-rule="evenodd"/><path fill="#cfe2f3" d="m170.7103 177.09566l0 0c-20.570892 -13.806778 -33.509705 -40.740128 -33.71312 -70.17694c-0.20341492 -29.436813 12.361237 -56.651672 32.73819 -70.91046z" fill-rule="evenodd"/><path fill="#cfe2f3" d="m169.58629 35.73111l0 0c20.570892 13.806789 33.50972 40.740128 33.713135 70.17694c0.20339966 29.436813 -12.361252 56.651672 -32.738205 70.91046z" fill-rule="evenodd"/><path fill="#000000" fill-opacity="0.0" d="m17.853018 106.608925l0 0c0 -51.210278 41.51413 -92.72441 92.72441 -92.72441l0 0c24.592033 0 48.176857 9.769151 65.56606 27.158352c17.38919 17.389198 27.15834 40.97402 27.15834 65.566055l0 0c0 51.210274 -41.51413 92.7244 -92.7244 92.7244l0 0c-51.21028 0 -92.72441 -41.51413 -92.72441 -92.7244z" fill-rule="evenodd"/><path stroke="#000000" stroke-width="1.0" stroke-linejoin="round" stroke-linecap="butt" d="m17.853018 106.608925l0 0c0 -51.210278 41.51413 -92.72441 92.72441 -92.72441l0 0c24.592033 0 48.176857 9.769151 65.56606 27.158352c17.38919 17.389198 27.15834 40.97402 27.15834 65.566055l0 0c0 51.210274 -41.51413 92.7244 -92.7244 92.7244l0 0c-51.21028 0 -92.72441 -41.51413 -92.72441 -92.7244z" fill-rule="evenodd"/><path fill="#000000" fill-opacity="0.0" d="m136.99475 106.608925l0 0c0 -51.210278 41.51413 -92.72441 92.72441 -92.72441l0 0c24.592041 0 48.176865 9.769151 65.566055 27.158352c17.38919 17.389198 27.158356 40.97402 27.158356 65.566055l0 0c0 51.210274 -41.51413 92.7244 -92.72441 92.7244l0 0c-51.21028 0 -92.72441 -41.51413 -92.72441 -92.7244z" fill-rule="evenodd"/><path stroke="#000000" stroke-width="1.0" stroke-linejoin="round" stroke-linecap="butt" d="m136.99475 106.608925l0 0c0 -51.210278 41.51413 -92.72441 92.72441 -92.72441l0 0c24.592041 0 48.176865 9.769151 65.566055 27.158352c17.38919 17.389198 27.158356 40.97402 27.158356 65.566055l0 0c0 51.210274 -41.51413 92.7244 -92.72441 92.7244l0 0c-51.21028 0 -92.72441 -41.51413 -92.72441 -92.7244z" fill-rule="evenodd"/><path fill="#000000" fill-opacity="0.0" d="m95.191605 85.60105l30.771652 0l0 42.015747l-30.771652 0z" fill-rule="evenodd"/><path fill="#000000" d="m104.160355 112.52105l5.125 -13.359375l1.90625 0l5.46875 13.359375l-2.015625 0l-1.546875 -4.046875l-5.59375 0l-1.46875 4.046875l-1.875 0zm3.859375 -5.484375l4.53125 0l-1.40625 -3.703125q-0.625 -1.6875 -0.9375 -2.765625q-0.265625 1.28125 -0.71875 2.546875l-1.46875 3.921875z" fill-rule="nonzero"/><path fill="#000000" fill-opacity="0.0" d="m214.33333 85.60105l30.771652 0l0 42.015747l-30.771652 0z" fill-rule="evenodd"/><path fill="#000000" d="m224.6927 112.52105l0 -13.359375l5.015625 0q1.53125 0 2.453125 0.40625q0.921875 0.40625 1.4375 1.25q0.53125 0.84375 0.53125 1.765625q0 0.859375 -0.46875 1.625q-0.453125 0.75 -1.390625 1.203125q1.203125 0.359375 1.859375 1.21875q0.65625 0.859375 0.65625 2.015625q0 0.9375 -0.40625 1.75q-0.390625 0.796875 -0.984375 1.234375q-0.578125 0.4375 -1.453125 0.671875q-0.875 0.21875 -2.15625 0.21875l-5.09375 0zm1.78125 -7.75l2.875 0q1.1875 0 1.6875 -0.140625q0.671875 -0.203125 1.015625 -0.671875q0.34375 -0.46875 0.34375 -1.171875q0 -0.65625 -0.328125 -1.15625q-0.3125 -0.515625 -0.90625 -0.703125q-0.59375 -0.1875 -2.03125 -0.1875l-2.65625 0l0 4.03125zm0 6.171875l3.3125 0q0.859375 0 1.203125 -0.0625q0.609375 -0.109375 1.015625 -0.359375q0.421875 -0.265625 0.6875 -0.75q0.265625 -0.484375 0.265625 -1.125q0 -0.75 -0.390625 -1.296875q-0.375 -0.546875 -1.0625 -0.765625q-0.671875 -0.234375 -1.953125 -0.234375l-3.078125 0l0 4.59375z" fill-rule="nonzero"/><path fill="#000000" fill-opacity="0.0" d="m132.90552 229.08923l93.19684 0l0 42.015747l-93.19684 0z" fill-rule="evenodd"/><path fill="#000000" d="m150.17114 252.38423l-5.125 0l-1.046875 2.84375l1.5 0q0.28125 0 0.390625 0.109375q0.125 0.109375 0.125 0.28125q0 0.171875 -0.125 0.28125q-0.109375 0.10939026 -0.390625 0.10939026l-2.921875 0q-0.265625 0 -0.390625 -0.10939026q-0.125 -0.109375 -0.125 -0.28125q0 -0.171875 0.125 -0.28125q0.125 -0.109375 0.390625 -0.109375l0.609375 0l3.4375 -9.296875l-2.296875 0q-0.28125 0 -0.40625 -0.09375q-0.109375 -0.109375 -0.109375 -0.296875q0 -0.171875 0.109375 -0.28125q0.125 -0.109375 0.40625 -0.109375l3.921875 0l3.8125 10.078125l0.59375 0q0.28125 0 0.390625 0.109375q0.125 0.109375 0.125 0.28125q0 0.171875 -0.125 0.28125q-0.109375 0.10939026 -0.390625 0.10939026l-2.90625 0q-0.28125 0 -0.40625 -0.10939026q-0.125 -0.109375 -0.125 -0.28125q0 -0.171875 0.125 -0.28125q0.125 -0.109375 0.40625 -0.109375l1.484375 0l-1.0625 -2.84375zm-0.296875 -0.78125l-2.15625 -5.671875l-0.28125 0l-2.09375 5.671875l4.53125 0z" fill-rule="nonzero"/><path fill="#000000" d="m194.88492 255.22798l0 -9.296875l-1.046875 0q-0.28125 0 -0.40625 -0.09375q-0.109375 -0.109375 -0.109375 -0.296875q0 -0.171875 0.109375 -0.28125q0.125 -0.109375 0.40625 -0.109375l4.890625 0q1.46875 0 2.375 0.84375q0.921875 0.84375 0.921875 1.96875q0 1.4375 -1.53125 2.3125q1.203125 0.4375 1.765625 1.171875q0.578125 0.71875 0.578125 1.578125q0 0.78125 -0.375 1.4375q-0.375 0.640625 -1.140625 1.09375q-0.765625 0.45314026 -1.65625 0.45314026l-5.828125 0q-0.28125 0 -0.40625 -0.10939026q-0.109375 -0.109375 -0.109375 -0.28125q0 -0.171875 0.109375 -0.28125q0.125 -0.109375 0.40625 -0.109375l1.046875 0zm0.78125 -5.25l2.75 0q0.890625 0 1.625 -0.328125q0.5625 -0.25 0.875 -0.734375q0.3125 -0.5 0.3125 -1.015625q0 -0.734375 -0.6875 -1.34375q-0.6875 -0.625 -1.78125 -0.625l-3.09375 0l0 4.046875zm0 5.25l3.9375 0q0.75 0 1.3125 -0.328125q0.5625 -0.34375 0.84375 -0.828125q0.28125 -0.5 0.28125 -1.015625q0 -0.59375 -0.40625 -1.15625q-0.40625 -0.5625 -1.140625 -0.84375q-0.734375 -0.28125 -2.03125 -0.28125l-2.796875 0l0 4.453125z" fill-rule="nonzero"/><path fill="#000000" fill-opacity="0.0" d="m156.06561 228.28609l36.97638 0l0 43.622055l-36.97638 0z" fill-rule="evenodd"/><path fill="#ffffff" d="m165.06561 237.28609l14.375 0l0 24.000015l-14.375 0l0 -24.000015z" fill-rule="nonzero"/><path fill="#000000" fill-opacity="0.0" d="m165.06561 238.38062l14.375 0l0 22.998047l-14.375 0l0 -22.998047z" fill-rule="nonzero"/><path fill="#333333" d="m167.92499 256.48608l-1.3125 0l0 -6.0625q0 -2.546875 0.0625 -3.21875q0.125 -1.234375 0.453125 -2.015625q0.328125 -0.796875 1.046875 -1.546875q0.734375 -0.765625 1.796875 -1.25q1.078125 -0.484375 2.296875 -0.484375q1.15625 0 2.203125 0.46875q1.046875 0.453125 1.828125 1.234375q0.78125 0.78125 1.125 1.65625q0.34375 0.875 0.4375 2.1875q0.046875 0.515625 0.046875 2.96875l0 6.0625l-1.3125 0l0 -6.140625q0 -2.203125 -0.0625 -2.828125q-0.09375 -1.109375 -0.359375 -1.765625q-0.25 -0.65625 -0.796875 -1.234375q-0.53125 -0.578125 -1.375 -0.953125q-0.84375 -0.375 -1.75 -0.375q-0.890625 0 -1.78125 0.390625q-0.875 0.390625 -1.4375 1.03125q-0.5625 0.640625 -0.796875 1.40625q-0.21875 0.765625 -0.28125 1.78125q-0.03125 0.515625 -0.03125 2.546875l0 6.140625z" fill-rule="nonzero"/></g></svg>